<svg width="170" height="36" viewBox="0 0 170 36" fill="none" xmlns="http://www.w3.org/2000/svg">
<path d="M12.7395 30.8328L8.57147 35.0277H0L12.7395 22.4753V30.8328Z" fill="#F37021"/>
<path d="M35.6397 35.0277H27.0682L22.9002 30.8328V22.4753L35.6397 35.0277Z" fill="#F37021"/>
<path d="M21.1398 30.8328H14.4945V12.7214H21.1398V30.8328Z" fill="#F37021"/>
<path d="M12.7395 12.7214V21.0788L0 8.52655H8.57147L12.7395 12.7214Z" fill="#F37021"/>
<path d="M22.9002 21.0788V12.7214L27.0682 8.52655H35.6397L22.9002 21.0788Z" fill="#F37021"/>
<path d="M17.8172 0.97168C20.5406 0.971681 22.7557 3.18142 22.7557 5.90481C22.7557 8.63356 20.5459 10.8434 17.8172 10.8434C15.0884 10.8434 12.8786 8.63356 12.8786 5.90481C12.8787 3.17607 15.0938 0.97168 17.8172 0.97168Z" fill="#F37021"/>
<path fill-rule="evenodd" clip-rule="evenodd" d="M144.331 10.8809C147.428 10.8809 150.022 11.8971 152.123 13.9295L152.217 14.027C154.336 16.1244 155.395 18.7301 155.395 21.7691C155.395 24.8082 154.341 27.3818 152.228 29.5006C150.114 31.6141 147.578 32.6735 144.502 32.6735C141.425 32.6735 138.825 31.6248 136.706 29.5167C134.587 27.4086 133.528 24.8618 133.528 21.8708C133.528 19.8804 134.015 18.0292 134.978 16.3277C135.941 14.6263 137.257 13.294 138.921 12.3309C140.591 11.3678 142.388 10.8809 144.331 10.8809ZM144.427 12.9087C142.891 12.9087 141.436 13.3047 140.061 14.1073C138.686 14.9098 137.61 15.9853 136.84 17.339C136.064 18.6927 135.679 20.2015 135.679 21.8708C135.679 24.3321 136.53 26.4188 138.242 28.1149C139.948 29.8164 142.014 30.6617 144.421 30.6617C146.032 30.6617 147.525 30.2711 148.895 29.49C150.227 28.7332 151.273 27.7053 152.032 26.4111L152.11 26.285C152.881 24.9313 153.261 23.4171 153.261 21.7691C153.261 20.1212 152.875 18.6337 152.11 17.3015C151.345 15.9692 150.259 14.9098 148.868 14.1073C147.471 13.3047 145.963 12.9087 144.427 12.9087Z" fill="white"/>
<path d="M164.507 10.897C165.492 10.897 166.412 11.1377 167.268 11.6246C168.124 12.1115 169.029 13.0104 169.986 14.3106L168.461 15.4663C168.461 15.4663 167.348 14.1661 167.231 14.0591C166.776 13.631 166.262 13.2619 165.684 13.0318C163.764 12.2774 161.249 13.6525 161.356 15.8355C161.409 16.9003 161.977 17.7938 162.726 18.5161C163.485 19.2438 164.368 19.8217 165.203 20.4584C166.198 21.2128 167.161 22.0154 167.996 22.9464C169.681 24.8244 170.767 27.5371 169.339 29.8753C168.092 31.9191 165.556 33.0159 163.213 32.5665C160.89 32.1224 159.333 30.3086 158.247 28.3236L159.906 27.3444C161.153 29.6451 162.597 30.7902 164.234 30.7902C164.935 30.7902 165.594 30.6297 166.203 30.3033C166.819 29.9769 167.284 29.5382 167.605 28.9924C167.926 28.4467 168.087 27.8634 168.087 27.2481C168.087 26.5472 167.851 25.8623 167.375 25.1881C166.722 24.2625 165.529 23.1442 163.801 21.8387C162.062 20.5225 160.976 19.5755 160.553 18.987C159.815 18.0025 159.446 16.9377 159.446 15.7927C159.446 14.8831 159.665 14.0591 160.098 13.31C160.532 12.5609 161.147 11.9724 161.934 11.5443C162.726 11.1163 163.582 10.897 164.507 10.897Z" fill="white"/>
<path d="M123.271 21.7799L130.944 32.1652L128.322 32.1545L121.751 23.2513L115.176 32.1545L112.565 32.1652L120.232 21.7799L112.565 11.3999L115.176 11.4053L121.757 20.3192L128.327 11.4053L130.944 11.3999L123.271 21.7799Z" fill="white"/>
<path d="M46.2772 32.1545H44.2012V11.4053H46.2772V32.1545Z" fill="white"/>
<path d="M66.5075 27.3069V11.4053H68.5567V32.1545H68.0912L54.3939 16.4401V32.1545H52.2484V11.4053H52.6978L66.5075 27.3069Z" fill="white"/>
<path d="M82.27 27.4354L89.2578 11.4053H91.5157L82.4894 32.1545H82.0346L73.1314 11.4053H75.3893L82.27 27.4354Z" fill="white"/>
<path d="M107.985 13.4331H98.1664V19.9393H107.899V21.9725H98.1664V30.1213H107.899V32.1545H96.0904V11.4053H107.985V13.4331Z" fill="white"/>
</svg>
