<svg width="24" height="23" viewBox="0 0 24 23" fill="none" xmlns="http://www.w3.org/2000/svg">
<path d="M8.57888 20.1087L5.77208 22.9335H0L8.57888 14.4807V20.1087Z" fill="#F37021"/>
<path d="M24 22.9335H18.2279L15.4211 20.1087V14.4807L24 22.9335Z" fill="#F37021"/>
<path d="M14.2357 20.1087H9.76072V7.91232H14.2357V20.1087Z" fill="#F37021"/>
<path d="M8.57888 7.91232V13.5403L0 5.0875H5.77208L8.57888 7.91232Z" fill="#F37021"/>
<path d="M15.4211 13.5403V7.91232L18.2279 5.0875H24L15.4211 13.5403Z" fill="#F37021"/>
<path d="M11.9982 0C13.8322 1.04088e-06 15.3238 1.48805 15.3239 3.322C15.3239 5.15956 13.8358 6.64765 11.9982 6.64765C10.1606 6.64765 8.67255 5.15956 8.67255 3.322C8.67256 1.48445 10.1643 0 11.9982 0Z" fill="#F37021"/>
</svg>
